<svg width="24" height="24" viewBox="0 0 24 24" fill="none" xmlns="http://www.w3.org/2000/svg">
<circle cx="12" cy="12" r="11.75" fill="white" stroke="black" stroke-width="0.5"/>
<path d="M9.03633 4.05936C9.22063 4.23311 9.14527 4.41561 8.61263 5.07311C8.28946 5.41255 8.03818 5.81223 7.87353 6.24874L7.8653 6.27311C7.8064 6.49061 7.82793 6.49686 8.0553 6.32874C8.3632 6.10513 8.68775 5.90477 9.0262 5.72936L9.06863 5.70936C9.2029 5.63999 9.48917 5.49811 9.50057 5.49811C9.51197 5.49811 9.56073 5.47186 9.62597 5.44124C10.0002 5.25844 10.3958 5.12198 10.804 5.03499L10.8388 5.02874C11.3721 4.96874 11.7096 5.21874 11.5849 5.57874C11.5298 5.73811 11.4367 5.80249 11.0573 5.93811C10.8325 6.01936 10.7305 6.05749 10.6564 6.08811L10.4284 6.18811C10.1948 6.28477 9.96798 6.39668 9.74947 6.52311L9.7767 6.50811C9.55749 6.63799 9.34738 6.78227 9.1478 6.93999L9.15857 6.93186C9.00649 7.05015 8.86572 7.18195 8.73803 7.32561L8.73487 7.32936C8.7488 7.35124 8.85013 7.34749 8.94387 7.32061C9.55215 7.19879 10.1754 7.16677 10.7932 7.22561L10.7679 7.22374C12.0852 7.38561 13.3012 8.21499 12.9541 8.71936C12.8021 8.94311 12.6311 8.95311 12.2404 8.76311C11.678 8.44218 11.0394 8.27418 10.3898 8.27624C10.0313 8.27624 9.6855 8.32624 9.35743 8.41936L9.3834 8.41311C8.99073 8.52686 8.98947 8.56311 9.37833 8.57999C9.47545 8.58207 9.56981 8.58915 9.66143 8.60124L9.64877 8.59999C9.69373 8.61124 9.74757 8.62061 9.8033 8.62624L9.80773 8.62686C9.98317 8.64999 10.1402 8.68499 10.291 8.73249L10.2713 8.72686C10.6048 8.81249 10.9212 8.95346 11.2068 9.14374L11.196 9.13686C11.576 9.41561 11.899 9.74374 12.1625 10.1156L12.1713 10.1294C12.5881 10.6831 12.6381 11.2581 12.2771 11.3756C12.0504 11.4494 11.9136 11.3512 11.6691 10.9381C11.5326 10.6545 11.3307 10.4064 11.0797 10.2135C10.8286 10.0207 10.5353 9.88848 10.2232 9.82749L10.2105 9.82561C10.0373 9.80073 9.86095 9.80687 9.68993 9.84374L9.69943 9.84186C8.3707 10.025 7.62907 11.6612 8.53157 12.4194C8.88731 12.6757 9.3166 12.8134 9.75707 12.8125C10.3872 12.8125 10.9522 12.5369 11.3347 12.1006L11.3372 12.0981C11.7609 11.6306 11.9579 11.5187 12.1872 11.6156C12.6837 11.8262 12.0193 12.9631 11.0757 13.5156C10.9889 13.5656 10.6064 13.7475 10.5139 13.7812L10.3511 13.8406C10.3112 13.855 10.2409 13.8756 10.1966 13.8906L9.99393 13.945C9.24065 14.1028 8.46954 14.1616 7.70063 14.12L7.7228 14.1212C6.3548 14.1462 6.19013 14.1862 5.45927 14.6712C5.2502 14.809 5.04512 14.9526 4.8443 15.1019C4.6524 15.2412 4.66 15.2412 4.44403 15.1181C3.98388 14.88 3.6032 14.5158 3.34771 14.0693C3.09223 13.6228 2.97282 13.1131 3.00383 12.6012L3.0032 12.6087C3.0146 12.4244 3.0032 12.4419 3.2502 12.2719C3.80373 11.8906 4.755 11.1787 4.79553 11.1156C4.80947 11.0944 4.93677 10.4744 4.9564 10.34C4.96092 10.2986 4.96962 10.2578 4.98237 10.2181L4.9811 10.2231C4.9925 10.1881 5.00263 10.1444 5.01023 10.1L5.01087 10.0944C5.02417 10.0175 5.0704 9.79874 5.1426 9.47186C5.2813 8.89624 5.42697 8.42374 5.5967 7.96311L5.5663 8.05749C5.59139 8.00192 5.61484 7.94565 5.6366 7.88874C6.15444 6.58822 6.95124 5.41365 7.97233 4.44561L7.9755 4.44249C8.4429 4.05936 8.87103 3.90124 9.03443 4.05499L9.03633 4.05936ZM20.5915 7.87061C20.9451 8.05625 21.2543 8.31444 21.4983 8.62783C21.7424 8.94122 21.9156 9.30253 22.0064 9.68749L22.0102 9.70624C22.0485 9.96713 22.0602 10.2312 22.045 10.4944L22.0456 10.4844C22.0317 10.5756 22.0285 10.5781 21.3705 11.0306C21.2533 11.1119 20.9246 11.3544 20.7625 11.4806C20.6922 11.5344 20.5662 11.6306 20.48 11.6994C20.2894 11.8456 20.2267 11.9112 20.2267 11.9687C20.2267 11.9925 20.2001 12.135 20.1691 12.2856C20.138 12.4362 20.1013 12.6131 20.0893 12.6794C19.9878 13.2122 19.8629 13.7404 19.715 14.2625C19.5545 14.8084 19.3404 15.3376 19.0759 15.8425C18.784 16.4194 18.4806 16.9106 18.1418 17.375L18.1639 17.3425L17.9847 17.5862C17.2437 18.5925 16.2114 19.2644 15.9764 18.8925C15.8624 18.7106 15.9435 18.5425 16.4292 17.9425C16.6224 17.7194 16.8061 17.4725 16.9707 17.2131L16.9866 17.1869C17.0005 17.1606 17.029 17.1056 17.0512 17.0662C17.1356 16.9131 17.1924 16.7467 17.219 16.5744L17.2203 16.5662C17.2082 16.5287 17.1588 16.55 17.0315 16.6456C16.6129 16.9487 16.1385 17.2294 15.6382 17.465L15.5844 17.4875L15.3703 17.5875C15.1847 17.6719 14.7325 17.8444 14.5742 17.8912C14.4033 17.9641 14.217 17.9946 14.0314 17.98H14.0352C13.7388 17.97 13.5678 17.89 13.4811 17.7219C13.4411 17.6236 13.4394 17.5142 13.4764 17.4149C13.5134 17.3155 13.5863 17.2331 13.6812 17.1837L13.6837 17.1825C13.7395 17.155 13.8104 17.125 13.8832 17.0987L13.8984 17.0937C14.0555 17.0394 14.2924 16.9525 14.3221 16.9387C14.3676 16.9182 14.4136 16.8991 14.4602 16.8812C15.1124 16.6327 15.7085 16.2598 16.2145 15.7837L16.2126 15.7856C16.3209 15.6812 16.3463 15.6269 16.2798 15.6419C16.0543 15.6975 15.7731 15.7475 15.4875 15.7812L15.4533 15.7844C14.9049 15.835 14.352 15.8043 13.8129 15.6931L13.849 15.6994C12.6267 15.4062 11.7552 14.6669 12.1264 14.2362C12.298 14.0362 12.4158 14.0437 12.8971 14.2756C12.9788 14.3187 13.0808 14.3656 13.1853 14.4075L13.2068 14.415C13.2216 14.4158 13.2345 14.4208 13.2455 14.43C13.3892 14.4919 13.5647 14.5512 13.7452 14.5981L13.7718 14.6037C14.0441 14.6837 14.3563 14.73 14.68 14.73C14.9947 14.73 15.2994 14.6862 15.5882 14.6044L15.5647 14.61C15.8637 14.5237 15.8998 14.51 15.9257 14.4762C15.9612 14.4306 15.9289 14.4206 15.7402 14.4181C15.2708 14.4019 14.8077 14.3066 14.3709 14.1362L14.3988 14.1456C13.9844 13.971 13.6116 13.7128 13.3044 13.3875L13.3025 13.3856C13.2518 13.3294 13.2011 13.2719 13.1878 13.2587C12.9156 12.9597 12.7008 12.6143 12.5539 12.2394L12.5463 12.2169C12.4449 11.8119 12.6818 11.5131 13.013 11.6356C13.1308 11.6794 13.1973 11.7519 13.3341 11.9887C13.9301 13.015 14.7211 13.3887 15.6553 13.08C16.0721 12.9503 16.4257 12.6733 16.6483 12.3021C16.8708 11.9309 16.9466 11.4917 16.8612 11.0687L16.8631 11.08C16.6515 10.3637 15.5799 9.97999 14.6464 10.2906C14.1886 10.447 13.7893 10.736 13.5007 11.12L13.4963 11.1262C13.2911 11.3469 13.1967 11.3981 13.0023 11.3981C12.7249 11.3981 12.6033 11.1737 12.7312 10.8981C12.745 10.8703 12.7566 10.8414 12.766 10.8119L12.7667 10.8081C12.842 10.6362 12.925 10.4894 13.02 10.3519L13.0137 10.3612C13.2333 10.0494 13.511 9.7815 13.8319 9.57186L13.8433 9.56499C14.4622 9.18411 15.1679 8.96215 15.896 8.91936L15.9086 8.91874C15.9846 8.91124 16.7028 8.89249 17.7732 8.86874C18.2414 8.89248 18.7085 8.80436 19.1348 8.61186L19.1165 8.61936C19.5224 8.38813 19.9115 8.12938 20.2812 7.84499L20.2584 7.86186C20.3793 7.76186 20.3971 7.76499 20.5909 7.87561L20.5915 7.87061Z" fill="black"/>
</svg>
